<svg xmlns="http://www.w3.org/2000/svg" viewBox="0 0 1024 1024">
  <path fill="#dce7e2" d="M284 228h456c54 0 98 44 98 98v352c0 54-44 98-98 98H284c-54 0-98-44-98-98V326c0-54 44-98 98-98Z"/>
  <path fill="#365da8" d="M256 302h512c50 0 90 40 90 90v350c0 50-40 90-90 90H256c-50 0-90-40-90-90V392c0-50 40-90 90-90Z"/>
  <path fill="#19705f" d="M166 395c0-51 41-92 92-92h508c51 0 92 41 92 92v85H166v-85Z"/>
  <path fill="#141716" d="M224 432h576c56 0 102 46 102 102v268c0 56-46 102-102 102H224c-56 0-102-46-102-102V534c0-56 46-102 102-102Z"/>
  <rect width="212" height="28" x="406" y="518" fill="#fbfffd" rx="14"/>
  <path fill="#fbfffd" fill-opacity=".86" d="M288 638h448c18 0 32 14 32 32s-14 32-32 32H288c-18 0-32-14-32-32s14-32 32-32Z"/>
  <path fill="#fbfffd" fill-opacity=".58" d="M288 746h292c18 0 32 14 32 32s-14 32-32 32H288c-18 0-32-14-32-32s14-32 32-32Z"/>
</svg>
